HIERARCHY
ROOT Hips
{
	OFFSET 0.000000 0.000000 0.000000
	CHANNELS 6 Xposition Yposition Zposition Zrotation Yrotation Xrotation 
	JOINT LHipJoint
	{
		OFFSET 0.000000 0.000000 0.000000
		CHANNELS 3 Zrotation Yrotation Xrotation
		JOINT LeftUpLeg
		{
			OFFSET 1.363060 -1.794630 0.839290
			CHANNELS 3 Zrotation Yrotation Xrotation
			JOINT LeftLeg
			{
				OFFSET 2.448110 -6.726130 0.000000
				CHANNELS 3 Zrotation Yrotation Xrotation
				JOINT LeftFoot
				{
					OFFSET 2.562200 -7.039590 0.000000
					CHANNELS 3 Zrotation Yrotation Xrotation
					JOINT LeftToeBase
					{
						OFFSET 0.157640 -0.433110 2.322550
						CHANNELS 3 Zrotation Yrotation Xrotation
						End Site
						{
							OFFSET 0.000000 0.000000 0.000000
						}
					}
				}
			}
		}
	}
	JOINT RHipJoint
	{
		OFFSET 0.000000 0.000000 0.000000
		CHANNELS 3 Zrotation Yrotation Xrotation
		JOINT RightUpLeg
		{
			OFFSET -1.305520 -1.794630 0.839290
			CHANNELS 3 Zrotation Yrotation Xrotation
			JOINT RightLeg
			{
				OFFSET -2.542530 -6.985550 0.000000
				CHANNELS 3 Zrotation Yrotation Xrotation
				JOINT RightFoot
				{
					OFFSET -2.568260 -7.056230 0.000000
					CHANNELS 3 Zrotation Yrotation Xrotation
					JOINT RightToeBase
					{
						OFFSET -0.164730 -0.452590 2.363150
						CHANNELS 3 Zrotation Yrotation Xrotation
						End Site
						{
							OFFSET 0.000000 0.000000 0.000000
						}
					}
				}
			}
		}
	}
}
MOTION
Frames: 19
Frame Time: 0.008333
3.559142 17.772052 0.669317 -163.860082 -65.774927 -176.760514 -10.408035 0.895596 -3.671732 -13.949685 12.695058 -21.013400 -2.419397 0.458579 16.250768 0.607863 3.501104 -0.290202 0.550300 -0.000000 -34.501800 9.682526 0.451807 -0.503674 3.378650 2.693230 -30.289900 1.899838 -1.705831 23.638049 -0.031889 0.693281 6.214839 -0.162999 -0.000000 -48.091300
3.459200 17.776446 0.674981 -163.899913 -65.787966 -176.743928 -10.420822 0.928764 -3.744675 -13.969714 12.757334 -20.534661 -2.411809 0.471623 16.195436 0.588753 3.390683 -0.095378 0.547300 -0.000001 -35.249700 9.613125 0.485326 -0.369282 3.484519 3.164344 -30.638520 1.987953 -1.602595 22.374577 0.046939 1.097520 6.535405 -0.073800 0.000000 -48.618000
3.358300 17.779739 0.680291 -163.940380 -65.820587 -176.715486 -10.433052 0.963139 -3.808979 -13.996222 12.795620 -20.069970 -2.403454 0.483903 16.143353 0.570663 3.285876 0.101237 0.544800 0.000000 -35.940300 9.543938 0.516902 -0.237619 3.604124 3.601117 -31.006788 2.075551 -1.499124 21.130523 0.123991 1.486783 6.884720 0.016300 0.000000 -49.050600
3.256606 17.782169 0.685150 -164.004593 -65.868929 -176.658403 -10.442656 0.999094 -3.867032 -14.037020 12.803565 -19.595555 -2.393252 0.494058 16.068305 0.555094 3.203518 0.320776 0.546501 0.000000 -36.621700 9.476241 0.548763 -0.109778 3.723506 4.012353 -31.387324 2.160382 -1.395746 19.910453 0.196066 1.842979 7.241007 0.102500 0.000000 -49.357400
3.153678 17.783666 0.689678 -164.057446 -65.941928 -176.590820 -10.453609 1.036265 -3.914080 -14.082861 12.796592 -19.165371 -2.383501 0.504943 16.020364 0.538431 3.109027 0.539802 0.546200 -0.000001 -37.224200 9.406315 0.577643 0.020989 3.862420 4.393854 -31.803906 2.245367 -1.290275 18.714430 0.262033 2.152670 7.584447 0.179200 -0.000001 -49.526700
3.049875 17.784502 0.693722 -164.123680 -66.035296 -176.496742 -10.463463 1.074812 -3.953616 -14.140457 12.768120 -18.751774 -2.373206 0.515295 15.972422 0.521972 3.017126 0.778371 0.547000 -0.000000 -37.822000 9.335699 0.606037 0.152713 4.005872 4.755745 -32.245399 2.328359 -1.183023 17.545829 0.320029 2.406281 7.894869 0.242500 0.000000 -49.571600
2.945021 17.784739 0.697264 -164.191554 -66.151817 -176.382232 -10.473562 1.114561 -3.985374 -14.205782 12.725376 -18.370038 -2.363303 0.526237 15.941240 0.504051 2.912340 1.029585 0.546100 0.000000 -38.419900 9.263167 0.633070 0.287346 4.158731 5.099491 -32.716126 2.410523 -1.072969 16.405198 0.370077 2.602222 8.156500 0.289800 0.000001 -49.519500
2.839376 17.784566 0.700169 -164.265144 -66.290598 -176.246948 -10.483471 1.155210 -4.011284 -14.277793 12.669169 -18.013878 -2.353751 0.537998 15.924250 0.484333 2.792035 1.297396 0.543200 0.000000 -39.059400 9.188757 0.659348 0.424731 4.317526 5.432714 -33.209346 2.491445 -0.959643 15.291045 0.412131 2.741147 8.359688 0.319800 0.000000 -49.408100
2.732866 17.783923 0.702487 -164.331410 -66.455692 -176.103052 -10.494758 1.196480 -4.032133 -14.349844 12.608417 -17.693850 -2.345476 0.551979 15.940445 0.461084 2.638541 1.570046 0.534400 0.000000 -39.733099 9.111962 0.684290 0.563300 4.491144 5.747379 -33.724482 2.573305 -0.842956 14.206379 0.448652 2.839951 8.499242 0.336200 0.000000 -49.272800
2.625648 17.782921 0.704116 -164.390815 -66.645579 -175.955371 -10.507175 1.237967 -4.050197 -14.418780 12.543614 -17.398650 -2.338065 0.568308 15.985530 0.434429 2.451895 1.849464 0.519300 -0.000000 -40.467200 9.033195 0.708355 0.701366 4.677647 6.049471 -34.249122 2.655795 -0.722996 13.148495 0.480757 2.908467 8.579692 0.341600 -0.000000 -49.148299
2.517851 17.781474 0.705058 -164.442226 -66.862306 -175.811757 -10.520776 1.279469 -4.066761 -14.481444 12.475543 -17.121128 -2.331332 0.587373 16.061558 0.404481 2.230799 2.130857 0.497100 0.000000 -41.257500 8.953429 0.732139 0.834140 4.881980 6.328448 -34.775509 2.740175 -0.601141 12.123092 0.511828 2.972299 8.608789 0.343800 0.000000 -49.054201
2.409505 17.779682 0.705295 -164.487600 -67.101928 -175.674871 -10.534693 1.320489 -4.084105 -14.536316 12.400004 -16.841252 -2.323891 0.608503 16.150859 0.372824 1.988843 2.425721 0.469800 0.000000 -42.154300 8.873133 0.755879 0.961860 5.095367 6.604186 -35.284661 2.823865 -0.477311 11.118273 0.541265 3.028634 8.609239 0.343100 0.000000 -49.010700
2.300585 17.777296 0.704905 -164.518662 -67.368090 -175.557841 -10.549949 1.360993 -4.101664 -14.578818 12.320761 -16.562505 -2.316010 0.632365 16.266456 0.339339 1.721178 2.718191 0.435700 0.000000 -43.089900 8.793253 0.779423 1.078705 5.331587 6.853059 -35.778545 2.909684 -0.354333 10.149645 0.573986 3.111408 8.594810 0.350099 0.000000 -49.008500
2.190928 17.774300 0.703952 -164.534568 -67.659330 -175.464171 -10.566223 1.400827 -4.119744 -14.608379 12.235085 -16.274294 -2.306795 0.658285 16.397766 0.305525 1.440278 3.011514 0.396800 -0.000000 -44.066601 8.714470 0.802570 1.183642 5.588926 7.080061 -36.250203 2.996532 -0.233781 9.218250 0.610738 3.225328 8.588143 0.367500 -0.000000 -49.039401
2.080479 17.770568 0.702501 -164.531067 -67.973968 -175.399950 -10.583755 1.439718 -4.137843 -14.623312 12.143163 -15.975387 -2.295828 0.685931 16.542962 0.272350 1.153611 3.302044 0.353900 0.000000 -45.053000 8.636927 0.824573 1.277122 5.868200 7.289312 -36.699989 3.083698 -0.117373 8.328365 0.651853 3.370999 8.610002 0.396400 0.000000 -49.088800
1.968827 17.766025 0.700676 -164.504068 -68.310375 -175.365862 -10.602648 1.477910 -4.154728 -14.624409 12.043277 -15.663896 -2.282634 0.714537 16.695742 0.240945 0.871508 3.590453 0.309000 -0.000000 -46.037700 8.560944 0.844645 1.359283 6.169989 7.480792 -37.133439 3.170879 -0.007253 7.490287 0.697683 3.550024 8.672573 0.438100 -0.000001 -49.137300
1.855894 17.760635 0.698593 -164.451122 -68.665870 -175.363790 -10.623069 1.515212 -4.169472 -14.611783 11.936489 -15.343517 -2.267164 0.743635 16.854129 0.211862 0.599355 3.874831 0.263200 -0.000000 -47.002400 8.486196 0.861873 1.432488 6.493253 7.660736 -37.558865 3.257194 0.095016 6.712693 0.746972 3.752934 8.782600 0.490400 -0.000000 -49.171600
1.741394 17.754347 0.696308 -164.372535 -69.039727 -175.388677 -10.645083 1.552180 -4.179451 -14.588167 11.821108 -15.021387 -2.249727 0.772585 17.018426 0.185297 0.340023 4.150786 0.217100 -0.000000 -47.913000 8.412682 0.875371 1.497881 6.840604 7.823241 -37.993807 3.343433 0.187218 6.015337 0.799918 3.981615 8.931598 0.553900 0.000000 -49.178000
1.625134 17.747272 0.693986 -164.256906 -69.424262 -175.446248 -10.669347 1.587928 -4.186627 -14.550041 11.703158 -14.698858 -2.229997 0.801153 17.181428 0.161262 0.094461 4.429595 0.171100 -0.000000 -48.824500 8.338418 0.883982 1.563184 7.198611 8.002953 -38.434793 3.425946 0.271239 5.384631 0.850460 4.193343 9.118829 0.615900 0.000000 -49.172500
